# xmcd
#
# Track frame offsets:
#	150
#	26384
#	48019
#	82696
#	100112
#	120288
#	143533
#	174192
#	207130
#	227114
#	252911
#
# Disc length: 3665 seconds
#
# Revision: 1
# Processed by: cddbd v1.5.2PL0 Copyright (c) Steve Scherf et al.
# Submitted via: audiograbber 1.83.01
#
DISCID=710e4f0b
DTITLE=The Kidney Brothers - Coal Tattoo
DYEAR=2013
DGENRE=Blues
TTITLE0=Jimmy Bell
TTITLE1=Outlaw Blues
TTITLE2=Roughhouse
TTITLE3=You Don't Love Me
TTITLE4=Thief
TTITLE5=Coal Tattoo
TTITLE6=Somebody Shot Him
TTITLE7=Heavy Rain
TTITLE8=Wild River
TTITLE9=That's Right
TTITLE10=Who Do You Love
EXTD=
EXTT0=
EXTT1=
EXTT2=
EXTT3=
EXTT4=
EXTT5=
EXTT6=
EXTT7=
EXTT8=
EXTT9=
EXTT10=
PLAYORDER=
